# xmcd
#
# Track frame offsets: 
#        150
#        12435
#        30477
#        51157
#        66704
#        82087
#        96373
#        116330
#        133911
#        149416
#        163896
#        183129
#
# Disc length: 2710 seconds
#
# Revision: 3
# Processed by: cddbd v1.5.2PL0 Copyright (c) Steve Scherf et al.
# Submitted via: ExactAudioCopyFreeDBPlugin 1.0
#
DISCID=af0a940c
DTITLE=Vassendgutane - Ungkar Med Dobbelseng
DYEAR=2005
DGENRE=Country
TTITLE0=Ungkar med dobbelseng
TTITLE1=Hjortejakt
TTITLE2=De' e' Helg
TTITLE3=I ei 60-sone
TTITLE4=Spada i Markja
TTITLE5=Granada
TTITLE6=Siste dans
TTITLE7=De' vart ikkje sånn
TTITLE8=Valle i Setesdal
TTITLE9=Hei Reidar
TTITLE10=Aldri vore til bya
TTITLE11=DVD
EXTD=
EXTT0=
EXTT1=
EXTT2=
EXTT3=
EXTT4=
EXTT5=
EXTT6=
EXTT7=
EXTT8=
EXTT9=
EXTT10=
EXTT11=
PLAYORDER=
